<?xml version="1.0" encoding="utf-8"?>
<!DOCTYPE svg PUBLIC "-//W3C//DTD SVG 1.1//EN" "http://www.w3.org/Graphics/SVG/1.1/DTD/svg11.dtd">
<svg version="1.1" xmlns="http://www.w3.org/2000/svg" xmlns:xlink="http://www.w3.org/1999/xlink" x="0px" y="0px"
     viewBox="0 0 365 365" enable-background="new 0 0 256 256" xml:space="preserve">
<rect x="22.148" y="19.567" width="214.285" height="214.285" style="fill: rgb(255, 255, 255);"
      transform="matrix(1, 0, 0, 1, 120.06374359130858, 115.54561614990234)"/>
    <g transform="matrix(1, 0, 0, 1, 120.06374359130858, 115.54561614990234)">
    <path fill="#000000"
          d="M194.2,54.3h-36.7c-4.1,0-7.4,3.3-7.4,7.4c0,4.1,3.3,7.4,7.4,7.4h19.4l-35.4,35.4l10.4,10.4l35.2-35.2L187,98.5c0,4.1,3.3,7.4,7.4,7.4s7.4-3.3,7.4-7.4V61.6c0-2.2-0.9-3.9-2.3-5.2C198.1,55.1,196.2,54.3,194.2,54.3L194.2,54.3z M231.3,216.5c0,8.1-6.6,14.8-14.8,14.8h-177c-8.1,0-14.8-6.6-14.8-14.8v-177c0-8.1,6.6-14.8,14.8-14.8h177c8.1,0,14.8,6.6,14.8,14.8V216.5L231.3,216.5z M216.5,10h-177C23.2,10,10,23.2,10,39.5v177c0,16.3,13.2,29.5,29.5,29.5h177c16.3,0,29.5-13.2,29.5-29.5v-177C246,23.2,232.8,10,216.5,10L216.5,10z M104.1,141.2l-35.3,35.3l0.2-19c0-4-3.3-7.4-7.4-7.4c-4.1,0-7.4,3.3-7.4,7.4v36.9c0,2.2,0.9,4,2.3,5.2c1.3,1.3,3.2,2.2,5.2,2.2h36.7c4.1,0,7.4-3.3,7.4-7.4c0-4-3.3-7.4-7.4-7.4H79.1l35.4-35.4L104.1,141.2L104.1,141.2z M194.4,150.1c-4.1,0-7.4,3.3-7.4,7.4l0.2,19l-35.3-35.3l-10.4,10.4l35.4,35.4h-19.4c-4.1,0-7.4,3.3-7.4,7.4c0,4,3.3,7.4,7.4,7.4h36.7c2,0,3.9-0.9,5.3-2.2c1.4-1.2,2.3-3,2.3-5.2v-36.9C201.8,153.5,198.4,150.1,194.4,150.1L194.4,150.1z M98.5,69c4.1,0,7.4-3.3,7.4-7.4c0-4.1-3.3-7.4-7.4-7.4H61.8c-2,0-3.9,0.8-5.3,2.2c-1.4,1.2-2.3,3-2.3,5.2v36.9c0,4.1,3.3,7.4,7.4,7.4s7.4-3.3,7.4-7.4l-0.2-18.9l35.2,35.2l10.5-10.4L79.1,69H98.5L98.5,69z"/>
</g>
</svg>
